G04 Layer: BottomLayer*
G04 EasyEDA v6.4.7, 2021-01-23T14:16:31+05:30*
G04 c51e990780d247319b14f838fd0acc24,02e763260c664b4eba746f00e1d76479,10*
G04 Gerber Generator version 0.2*
G04 Scale: 100 percent, Rotated: No, Reflected: No *
G04 Dimensions in millimeters *
G04 leading zeros omitted , absolute positions ,3 integer and 3 decimal *
%FSLAX33Y33*%
%MOMM*%
G90*
D02*

%ADD11C,0.399999*%
%ADD12C,0.700024*%
%ADD14R,1.676400X1.676400*%
%ADD15C,3.499993*%
%ADD17C,1.879600*%
%ADD18C,1.999996*%
%ADD19C,1.524000*%
%ADD20C,2.999994*%
%ADD21C,1.300480*%
%ADD23C,1.799996*%

%LPD*%
G54D11*
G01X100401Y94737D02*
G01X97137Y91475D01*
G01X67279Y91475D01*
G01X47348Y71541D01*
G01X47348Y62689D01*
G01X54802Y55234D01*
G01X6542Y41010D02*
G01X17083Y51551D01*
G01X17083Y85206D01*
G01X113101Y38724D02*
G01X107507Y38724D01*
G01X119242Y10276D02*
G01X119242Y32580D01*
G01X113101Y38724D01*
G01X113101Y38724D02*
G01X113101Y94737D01*
G01X7983Y30850D02*
G01X29783Y52651D01*
G01X29783Y85206D01*
G01X6542Y30850D02*
G01X7983Y30850D01*
G01X54802Y57774D02*
G01X52550Y60027D01*
G01X52550Y69591D01*
G01X68506Y85547D01*
G01X93748Y85547D01*
G01X102941Y94737D01*
G01X54802Y60314D02*
G01X53362Y61755D01*
G01X53362Y69268D01*
G01X63812Y79718D01*
G01X90459Y79718D01*
G01X105481Y94737D01*
G01X78678Y46979D02*
G01X60263Y65394D01*
G01X54802Y65394D01*
G01X77541Y94737D02*
G01X79448Y96647D01*
G01X108650Y96647D01*
G01X110561Y94737D01*
G01X77541Y94737D02*
G01X75437Y92636D01*
G01X60835Y92636D01*
G01X54548Y86349D01*
G01X54802Y42534D02*
G01X46502Y50835D01*
G01X46502Y78303D01*
G01X54548Y86349D01*
G01X34863Y85206D02*
G01X34863Y59933D01*
G01X54802Y39994D01*
G01X32323Y85206D02*
G01X30843Y86687D01*
G01X16164Y86687D01*
G01X11892Y82415D01*
G01X11892Y48900D01*
G01X6542Y43550D01*
G01X22163Y85206D02*
G01X18404Y81447D01*
G01X18404Y50022D01*
G01X6542Y38470D02*
G01X18094Y50022D01*
G01X18404Y50022D01*
G01X91132Y43550D02*
G01X91132Y46093D01*
G01X63982Y73243D01*
G01X6542Y35930D02*
G01X24703Y54091D01*
G01X24703Y73243D01*
G01X24703Y73243D02*
G01X24703Y85206D01*
G01X107507Y48884D02*
G01X93502Y48884D01*
G01X63913Y78473D01*
G01X81218Y46979D02*
G01X60263Y67934D01*
G01X54802Y67934D01*
G54D14*
G01X6542Y57774D03*
G01X54802Y55234D03*
G01X6542Y60314D03*
G01X6542Y62854D03*
G01X6542Y65394D03*
G01X6542Y67934D03*
G01X6542Y55234D03*
G01X6542Y52694D03*
G01X6542Y50154D03*
G01X6542Y46090D03*
G01X6542Y43550D03*
G01X6542Y41010D03*
G01X6542Y38470D03*
G01X6542Y35930D03*
G01X6542Y33390D03*
G01X6542Y30850D03*
G01X6542Y28310D03*
G01X54802Y57774D03*
G01X54802Y60314D03*
G01X54802Y62854D03*
G01X54802Y65394D03*
G01X54802Y67934D03*
G01X54802Y50154D03*
G01X54802Y47614D03*
G01X54802Y45074D03*
G01X54802Y42534D03*
G01X54802Y39994D03*
G01X54802Y37454D03*
G01X6542Y25770D03*
G01X6542Y23230D03*
G01X54802Y34914D03*
G01X54802Y32374D03*
G54D15*
G01X6542Y19674D03*
G01X54802Y18404D03*
G01X49722Y70474D03*
G01X21782Y70474D03*
G36*
G01X72659Y47919D02*
G01X74538Y47919D01*
G01X74538Y46040D01*
G01X72659Y46040D01*
G01X72659Y47919D01*
G37*
G54D17*
G01X76138Y46979D03*
G01X78678Y46979D03*
G01X81218Y46979D03*
G01X71058Y8879D03*
G01X73598Y8879D03*
G01X76138Y8879D03*
G01X78678Y8879D03*
G01X81218Y8879D03*
G01X83758Y8879D03*
G54D18*
G01X49468Y86349D03*
G01X52008Y88889D03*
G01X54548Y86349D03*
G54D19*
G01X107507Y51424D03*
G01X107507Y48884D03*
G01X107507Y46344D03*
G01X107507Y43804D03*
G01X107507Y41264D03*
G01X107507Y38724D03*
G54D17*
G01X91132Y43550D03*
G01X101531Y43550D03*
G01X133923Y16380D03*
G01X133923Y26779D03*
G01X107253Y17142D03*
G01X107253Y27541D03*
G54D20*
G01X69500Y94738D03*
G01X69500Y63737D03*
G01X144499Y63737D03*
G01X144499Y94738D03*
G54D21*
G01X119242Y10276D03*
G01X125745Y10276D03*
G54D19*
G01X34863Y85206D03*
G01X32323Y85206D03*
G01X29783Y85206D03*
G01X27243Y85206D03*
G01X24703Y85206D03*
G01X22163Y85206D03*
G01X19623Y85206D03*
G36*
G01X16321Y85968D02*
G01X17845Y85968D01*
G01X17845Y84444D01*
G01X16321Y84444D01*
G01X16321Y85968D01*
G37*
G54D12*
G01X18404Y50022D03*
G01X24703Y73243D03*
G01X63982Y73243D03*
G01X63913Y78473D03*
G54D23*
G01X74999Y95138D02*
G01X74999Y94338D01*
G01X77539Y95138D02*
G01X77539Y94338D01*
G01X80079Y95138D02*
G01X80079Y94338D01*
G01X82619Y95138D02*
G01X82619Y94338D01*
G01X85159Y95138D02*
G01X85159Y94338D01*
G01X87699Y95138D02*
G01X87699Y94338D01*
G01X90239Y95138D02*
G01X90239Y94338D01*
G01X92779Y95138D02*
G01X92779Y94338D01*
G01X95319Y95138D02*
G01X95319Y94338D01*
G01X97859Y95138D02*
G01X97859Y94338D01*
G01X100399Y95138D02*
G01X100399Y94338D01*
G01X102939Y95138D02*
G01X102939Y94338D01*
G01X105479Y95138D02*
G01X105479Y94338D01*
G01X108019Y95138D02*
G01X108019Y94338D01*
G01X110559Y95138D02*
G01X110559Y94338D01*
G01X113099Y95138D02*
G01X113099Y94338D01*
M00*
M02*
