;Layer: Drill PTH
;EasyEDA v6.4.7, 2021-01-23T14:16:31+05:30
;c51e990780d247319b14f838fd0acc24,02e763260c664b4eba746f00e1d76479,10
;Gerber Generator version 0.2
M48
METRIC,LZ,000.000
;Holesize 1 = 0.400 METRIC
T01C0.400
;Holesize 2 = 0.900 METRIC
T02C0.900
;Holesize 3 = 0.915 METRIC
T03C0.915
;Holesize 4 = 1.001 METRIC
T04C1.001
;Holesize 5 = 1.016 METRIC
T05C1.016
;Holesize 6 = 1.200 METRIC
T06C1.200
;Holesize 7 = 2.501 METRIC
T07C2.501
;Holesize 8 = 3.501 METRIC
T08C3.501
%
G05
G90
T01
X+018404Y+050022
X+024703Y+073243
X+063982Y+073243
X+063913Y+078473
T02
X+091131Y+043550
X+101531Y+043550
X+133923Y+016380
X+133923Y+026779
X+107253Y+017142
X+107253Y+027541
X+119242Y+010276
X+125745Y+010276
T03
X+107507Y+051424
X+107507Y+048884
X+107507Y+046344
X+107507Y+043804
X+107507Y+041264
X+107507Y+038724
X+034863Y+085206
X+032323Y+085206
X+029783Y+085206
X+027243Y+085206
X+024703Y+085206
X+022163Y+085206
X+019623Y+085206
X+017083Y+085206
T04
X+006542Y+057774
X+054802Y+055234
X+006542Y+060314
X+006542Y+062854
X+006542Y+065394
X+006542Y+067934
X+006542Y+055234
X+006542Y+052694
X+006542Y+050154
X+006542Y+046090
X+006542Y+043550
X+006542Y+041010
X+006542Y+038470
X+006542Y+035930
X+006542Y+033390
X+006542Y+030850
X+006542Y+028310
X+054802Y+057774
X+054802Y+060314
X+054802Y+062854
X+054802Y+065394
X+054802Y+067934
X+054802Y+050154
X+054802Y+047614
X+054802Y+045074
X+054802Y+042534
X+054802Y+039994
X+054802Y+037454
X+006542Y+025770
X+006542Y+023230
X+054802Y+034914
X+054802Y+032374
T05
X+073598Y+046979
X+076138Y+046979
X+078678Y+046979
X+081218Y+046979
X+071058Y+008879
X+073598Y+008879
X+076138Y+008879
X+078678Y+008879
X+081218Y+008879
X+083758Y+008879
T06
X+049468Y+086349
X+052008Y+088889
X+054548Y+086349
X+074999Y+094735G85X+074999Y+094740
X+077539Y+094735G85X+077539Y+094740
X+080079Y+094735G85X+080079Y+094740
X+082619Y+094735G85X+082619Y+094740
X+085159Y+094735G85X+085159Y+094740
X+087699Y+094735G85X+087699Y+094740
X+090239Y+094735G85X+090239Y+094740
X+092779Y+094735G85X+092779Y+094740
X+095319Y+094735G85X+095319Y+094740
X+097859Y+094735G85X+097859Y+094740
X+100399Y+094735G85X+100399Y+094740
X+102939Y+094735G85X+102939Y+094740
X+105479Y+094735G85X+105479Y+094740
X+108019Y+094735G85X+108019Y+094740
X+110559Y+094735G85X+110559Y+094740
X+113099Y+094735G85X+113099Y+094740
T07
X+069500Y+094738G85X+069500Y+094738
X+069500Y+063737G85X+069500Y+063737
X+144499Y+063737G85X+144499Y+063737
X+144499Y+094738G85X+144499Y+094738
T08
X+006542Y+019674
X+054802Y+018404
X+049722Y+070474
X+021782Y+070474
M30
