G04 Layer: TopSilkLayer*
G04 EasyEDA v6.4.7, 2021-01-23T14:16:31+05:30*
G04 c51e990780d247319b14f838fd0acc24,02e763260c664b4eba746f00e1d76479,10*
G04 Gerber Generator version 0.2*
G04 Scale: 100 percent, Rotated: No, Reflected: No *
G04 Dimensions in millimeters *
G04 leading zeros omitted , absolute positions ,3 integer and 3 decimal *
%FSLAX33Y33*%
%MOMM*%
G90*
D02*

%ADD10C,0.254000*%
%ADD24C,0.200660*%
%ADD25C,0.149987*%
%ADD26C,0.152400*%
%ADD27C,0.203200*%

%LPD*%
G54D10*
G01X57342Y4434D02*
G01X57342Y70474D01*
G01X57342Y70474D02*
G01X54802Y70474D01*
G01X54802Y70474D02*
G01X52262Y73014D01*
G01X52262Y73014D02*
G01X19496Y73014D01*
G01X19496Y73014D02*
G01X16956Y70474D01*
G01X16956Y70474D02*
G01X5526Y70474D01*
G01X5526Y70474D02*
G01X4002Y68950D01*
G01X4002Y68950D02*
G01X4002Y4434D01*
G01X4002Y4434D02*
G01X57342Y4434D01*
G54D24*
G01X82742Y45709D02*
G01X82742Y48249D01*
G01X71947Y45709D02*
G01X71947Y48249D01*
G01X71947Y48249D02*
G01X82742Y48249D01*
G01X71947Y45709D02*
G01X82742Y45709D01*
G54D10*
G01X88330Y49265D02*
G01X88330Y6466D01*
G01X67502Y6466D01*
G01X66867Y6466D01*
G01X66867Y11673D01*
G01X66867Y49392D01*
G01X69404Y49389D01*
G01X88330Y49392D01*
G54D24*
G01X85028Y7609D02*
G01X85028Y10149D01*
G01X69788Y7609D02*
G01X69788Y10149D01*
G01X69788Y10149D02*
G01X85028Y10149D01*
G01X69788Y7609D02*
G01X85028Y7609D01*
G54D10*
G01X133316Y9072D02*
G01X133316Y9073D01*
G01X132966Y9422D01*
G01X133316Y10973D02*
G01X133316Y10972D01*
G01X132966Y10623D01*
G01X135566Y10973D02*
G01X136916Y10973D01*
G01X135566Y9072D02*
G01X136916Y9072D01*
G01X134566Y10973D02*
G01X133316Y10973D01*
G01X134566Y9072D02*
G01X133316Y9072D01*
G01X136916Y10973D02*
G01X136916Y9072D01*
G01X132966Y10623D02*
G01X132966Y9422D01*
G01X135366Y10522D02*
G01X135366Y9522D01*
G01X135366Y10017D02*
G01X134866Y10017D01*
G01X106519Y9326D02*
G01X106519Y9327D01*
G01X106169Y9676D01*
G01X106519Y11227D02*
G01X106519Y11226D01*
G01X106169Y10877D01*
G01X108769Y11227D02*
G01X110119Y11227D01*
G01X108769Y9326D02*
G01X110119Y9326D01*
G01X107769Y11227D02*
G01X106519Y11227D01*
G01X107769Y9326D02*
G01X106519Y9326D01*
G01X110119Y11227D02*
G01X110119Y9326D01*
G01X106169Y10877D02*
G01X106169Y9676D01*
G01X108569Y10776D02*
G01X108569Y9776D01*
G01X108569Y10271D02*
G01X108069Y10271D01*
G01X48759Y91889D02*
G01X55258Y91889D01*
G01X55258Y88889D02*
G01X55258Y91889D01*
G01X55258Y88889D02*
G01X48759Y88889D01*
G01X48759Y91889D02*
G01X48759Y88889D01*
G01X54008Y88889D02*
G01X54008Y91889D01*
G01X50008Y88889D02*
G01X50008Y91889D01*
G01X48759Y87889D02*
G01X55258Y87889D01*
G01X55258Y88889D02*
G01X55258Y87889D01*
G01X48759Y88889D02*
G01X48759Y87889D01*
G01X146668Y33575D02*
G01X104669Y33575D01*
G01X104669Y56575D01*
G01X146668Y56575D01*
G01X146668Y33575D01*
G01X146750Y37708D02*
G01X130751Y37708D01*
G01X130751Y52708D01*
G01X146750Y52708D01*
G01X146750Y37708D01*
G01X93081Y44701D02*
G01X99581Y44701D01*
G01X99581Y44701D02*
G01X99581Y42400D01*
G01X99581Y42400D02*
G01X93081Y42400D01*
G01X93081Y44701D01*
G01X132773Y18329D02*
G01X132773Y24829D01*
G01X132773Y24829D02*
G01X135073Y24829D01*
G01X135073Y24829D02*
G01X135073Y18329D01*
G01X132773Y18329D01*
G01X106103Y19091D02*
G01X106103Y25591D01*
G01X106103Y25591D02*
G01X108403Y25591D01*
G01X108403Y25591D02*
G01X108403Y19091D01*
G01X106103Y19091D01*
G54D25*
G01X75200Y86737D02*
G01X138700Y86737D01*
G01X74700Y72239D02*
G01X74700Y86239D01*
G01X138700Y71738D02*
G01X75200Y71738D01*
G01X139200Y86239D02*
G01X139200Y72239D01*
G01X70399Y91837D02*
G01X143600Y91837D01*
G01X143600Y66437D01*
G01X70399Y66437D01*
G01X70399Y91837D01*
G01X66998Y97237D02*
G01X146998Y97237D01*
G01X146998Y61238D01*
G01X66998Y61238D01*
G01X66998Y97237D01*
G54D10*
G01X13527Y90667D02*
G01X37911Y90667D01*
G01X37911Y82793D01*
G01X13527Y82793D01*
G01X13527Y90667D01*
G54D26*
G01X2595Y38597D02*
G01X3375Y38597D01*
G01X3530Y38648D01*
G01X3634Y38752D01*
G01X3685Y38910D01*
G01X3685Y39014D01*
G01X3634Y39169D01*
G01X3530Y39273D01*
G01X3375Y39324D01*
G01X2595Y39324D01*
G01X2595Y39928D02*
G01X2646Y39771D01*
G01X2750Y39720D01*
G01X2854Y39720D01*
G01X2959Y39771D01*
G01X3012Y39875D01*
G01X3063Y40083D01*
G01X3113Y40238D01*
G01X3218Y40342D01*
G01X3322Y40396D01*
G01X3479Y40396D01*
G01X3583Y40342D01*
G01X3634Y40292D01*
G01X3685Y40134D01*
G01X3685Y39928D01*
G01X3634Y39771D01*
G01X3583Y39720D01*
G01X3479Y39667D01*
G01X3322Y39667D01*
G01X3218Y39720D01*
G01X3113Y39824D01*
G01X3063Y39979D01*
G01X3012Y40188D01*
G01X2959Y40292D01*
G01X2854Y40342D01*
G01X2750Y40342D01*
G01X2646Y40292D01*
G01X2595Y40134D01*
G01X2595Y39928D01*
G01X89865Y27929D02*
G01X89085Y27929D01*
G01X88930Y27879D01*
G01X88826Y27775D01*
G01X88775Y27617D01*
G01X88775Y27513D01*
G01X88826Y27358D01*
G01X88930Y27254D01*
G01X89085Y27203D01*
G01X89865Y27203D01*
G01X89710Y26235D02*
G01X89814Y26289D01*
G01X89865Y26444D01*
G01X89865Y26548D01*
G01X89814Y26703D01*
G01X89656Y26807D01*
G01X89397Y26860D01*
G01X89138Y26860D01*
G01X88930Y26807D01*
G01X88826Y26703D01*
G01X88775Y26548D01*
G01X88775Y26494D01*
G01X88826Y26339D01*
G01X88930Y26235D01*
G01X89085Y26185D01*
G01X89138Y26185D01*
G01X89293Y26235D01*
G01X89397Y26339D01*
G01X89448Y26494D01*
G01X89448Y26548D01*
G01X89397Y26703D01*
G01X89293Y26807D01*
G01X89138Y26860D01*
G54D27*
G01X81709Y44185D02*
G01X81818Y44295D01*
G01X81871Y44457D01*
G01X81871Y44676D01*
G01X81818Y44838D01*
G01X81709Y44947D01*
G01X81599Y44947D01*
G01X81490Y44894D01*
G01X81437Y44838D01*
G01X81381Y44729D01*
G01X81272Y44401D01*
G01X81218Y44295D01*
G01X81165Y44239D01*
G01X81056Y44185D01*
G01X80891Y44185D01*
G01X80782Y44295D01*
G01X80728Y44457D01*
G01X80728Y44676D01*
G01X80782Y44838D01*
G01X80891Y44947D01*
G01X81599Y43007D02*
G01X81709Y43063D01*
G01X81818Y43172D01*
G01X81871Y43279D01*
G01X81871Y43497D01*
G01X81818Y43606D01*
G01X81709Y43716D01*
G01X81599Y43771D01*
G01X81437Y43825D01*
G01X81165Y43825D01*
G01X81000Y43771D01*
G01X80891Y43716D01*
G01X80782Y43606D01*
G01X80728Y43497D01*
G01X80728Y43279D01*
G01X80782Y43172D01*
G01X80891Y43063D01*
G01X81000Y43007D01*
G01X81871Y42649D02*
G01X80728Y42649D01*
G01X80728Y42649D02*
G01X80728Y41993D01*
G01X79042Y44312D02*
G01X79151Y44422D01*
G01X79204Y44584D01*
G01X79204Y44803D01*
G01X79151Y44965D01*
G01X79042Y45074D01*
G01X78932Y45074D01*
G01X78823Y45021D01*
G01X78770Y44965D01*
G01X78714Y44856D01*
G01X78605Y44528D01*
G01X78551Y44422D01*
G01X78498Y44366D01*
G01X78389Y44312D01*
G01X78224Y44312D01*
G01X78115Y44422D01*
G01X78061Y44584D01*
G01X78061Y44803D01*
G01X78115Y44965D01*
G01X78224Y45074D01*
G01X79204Y43952D02*
G01X78061Y43952D01*
G01X79204Y43952D02*
G01X79204Y43571D01*
G01X79151Y43406D01*
G01X79042Y43299D01*
G01X78932Y43243D01*
G01X78770Y43190D01*
G01X78498Y43190D01*
G01X78333Y43243D01*
G01X78224Y43299D01*
G01X78115Y43406D01*
G01X78061Y43571D01*
G01X78061Y43952D01*
G01X79204Y42392D02*
G01X78061Y42829D01*
G01X79204Y42392D02*
G01X78061Y41958D01*
G01X78442Y42667D02*
G01X78442Y42120D01*
G01X76664Y45074D02*
G01X75521Y44638D01*
G01X76664Y44203D02*
G01X75521Y44638D01*
G01X76392Y43025D02*
G01X76502Y43081D01*
G01X76611Y43190D01*
G01X76664Y43299D01*
G01X76664Y43515D01*
G01X76611Y43624D01*
G01X76502Y43733D01*
G01X76392Y43789D01*
G01X76230Y43843D01*
G01X75958Y43843D01*
G01X75793Y43789D01*
G01X75684Y43733D01*
G01X75575Y43624D01*
G01X75521Y43515D01*
G01X75521Y43299D01*
G01X75575Y43190D01*
G01X75684Y43081D01*
G01X75793Y43025D01*
G01X76392Y41849D02*
G01X76502Y41902D01*
G01X76611Y42011D01*
G01X76664Y42120D01*
G01X76664Y42339D01*
G01X76611Y42448D01*
G01X76502Y42557D01*
G01X76392Y42611D01*
G01X76230Y42667D01*
G01X75958Y42667D01*
G01X75793Y42611D01*
G01X75684Y42557D01*
G01X75575Y42448D01*
G01X75521Y42339D01*
G01X75521Y42120D01*
G01X75575Y42011D01*
G01X75684Y41902D01*
G01X75793Y41849D01*
G01X73979Y44257D02*
G01X74089Y44312D01*
G01X74198Y44422D01*
G01X74251Y44528D01*
G01X74251Y44747D01*
G01X74198Y44856D01*
G01X74089Y44965D01*
G01X73979Y45021D01*
G01X73817Y45074D01*
G01X73545Y45074D01*
G01X73380Y45021D01*
G01X73271Y44965D01*
G01X73162Y44856D01*
G01X73108Y44747D01*
G01X73108Y44528D01*
G01X73162Y44422D01*
G01X73271Y44312D01*
G01X73380Y44257D01*
G01X73545Y44257D01*
G01X73545Y44528D02*
G01X73545Y44257D01*
G01X74251Y43898D02*
G01X73108Y43898D01*
G01X74251Y43898D02*
G01X73108Y43134D01*
G01X74251Y43134D02*
G01X73108Y43134D01*
G01X74251Y42776D02*
G01X73108Y42776D01*
G01X74251Y42776D02*
G01X74251Y42392D01*
G01X74198Y42230D01*
G01X74089Y42120D01*
G01X73979Y42067D01*
G01X73817Y42011D01*
G01X73545Y42011D01*
G01X73380Y42067D01*
G01X73271Y42120D01*
G01X73162Y42230D01*
G01X73108Y42392D01*
G01X73108Y42776D01*
G01X87406Y40502D02*
G01X85468Y40502D01*
G01X87406Y40502D02*
G01X87406Y39672D01*
G01X87314Y39395D01*
G01X87223Y39301D01*
G01X87038Y39210D01*
G01X86852Y39210D01*
G01X86667Y39301D01*
G01X86575Y39395D01*
G01X86484Y39672D01*
G01X86484Y40502D01*
G01X86484Y39855D02*
G01X85468Y39210D01*
G01X87406Y37952D02*
G01X85468Y37952D01*
G01X87406Y38600D02*
G01X87406Y37307D01*
G01X86946Y35311D02*
G01X87129Y35405D01*
G01X87314Y35588D01*
G01X87406Y35773D01*
G01X87406Y36144D01*
G01X87314Y36327D01*
G01X87129Y36512D01*
G01X86946Y36604D01*
G01X86667Y36698D01*
G01X86207Y36698D01*
G01X85930Y36604D01*
G01X85745Y36512D01*
G01X85559Y36327D01*
G01X85468Y36144D01*
G01X85468Y35773D01*
G01X85559Y35588D01*
G01X85745Y35405D01*
G01X85930Y35311D01*
G01X87406Y33279D02*
G01X85468Y33279D01*
G01X87406Y33279D02*
G01X87406Y32634D01*
G01X87314Y32357D01*
G01X87129Y32171D01*
G01X86946Y32080D01*
G01X86667Y31986D01*
G01X86207Y31986D01*
G01X85930Y32080D01*
G01X85745Y32171D01*
G01X85559Y32357D01*
G01X85468Y32634D01*
G01X85468Y33279D01*
G01X87129Y30083D02*
G01X87314Y30269D01*
G01X87406Y30546D01*
G01X87406Y30914D01*
G01X87314Y31193D01*
G01X87129Y31376D01*
G01X86946Y31376D01*
G01X86761Y31285D01*
G01X86667Y31193D01*
G01X86575Y31008D01*
G01X86390Y30454D01*
G01X86298Y30269D01*
G01X86207Y30177D01*
G01X86022Y30083D01*
G01X85745Y30083D01*
G01X85559Y30269D01*
G01X85468Y30546D01*
G01X85468Y30914D01*
G01X85559Y31193D01*
G01X85745Y31376D01*
G01X87406Y29288D02*
G01X87406Y28272D01*
G01X86667Y28829D01*
G01X86667Y28552D01*
G01X86575Y28366D01*
G01X86484Y28272D01*
G01X86207Y28181D01*
G01X86022Y28181D01*
G01X85745Y28272D01*
G01X85559Y28458D01*
G01X85468Y28735D01*
G01X85468Y29012D01*
G01X85559Y29288D01*
G01X85651Y29382D01*
G01X85836Y29474D01*
G01X86946Y27480D02*
G01X87038Y27480D01*
G01X87223Y27386D01*
G01X87314Y27294D01*
G01X87406Y27109D01*
G01X87406Y26741D01*
G01X87314Y26555D01*
G01X87223Y26464D01*
G01X87038Y26370D01*
G01X86852Y26370D01*
G01X86667Y26464D01*
G01X86390Y26647D01*
G01X85468Y27571D01*
G01X85468Y26278D01*
G01X87406Y25483D02*
G01X87406Y24467D01*
G01X86667Y25021D01*
G01X86667Y24744D01*
G01X86575Y24561D01*
G01X86484Y24467D01*
G01X86207Y24376D01*
G01X86022Y24376D01*
G01X85745Y24467D01*
G01X85559Y24653D01*
G01X85468Y24930D01*
G01X85468Y25207D01*
G01X85559Y25483D01*
G01X85651Y25577D01*
G01X85836Y25669D01*
G01X87038Y23766D02*
G01X87129Y23581D01*
G01X87406Y23304D01*
G01X85468Y23304D01*
G01X87129Y20442D02*
G01X85468Y20442D01*
G01X86298Y21272D02*
G01X86298Y19611D01*
G01X79194Y13307D02*
G01X79303Y13416D01*
G01X79357Y13578D01*
G01X79357Y13797D01*
G01X79303Y13959D01*
G01X79194Y14069D01*
G01X79085Y14069D01*
G01X78976Y14015D01*
G01X78922Y13959D01*
G01X78866Y13850D01*
G01X78757Y13523D01*
G01X78704Y13416D01*
G01X78651Y13360D01*
G01X78541Y13307D01*
G01X78376Y13307D01*
G01X78267Y13416D01*
G01X78214Y13578D01*
G01X78214Y13797D01*
G01X78267Y13959D01*
G01X78376Y14069D01*
G01X79085Y12128D02*
G01X79194Y12184D01*
G01X79303Y12293D01*
G01X79357Y12400D01*
G01X79357Y12618D01*
G01X79303Y12728D01*
G01X79194Y12837D01*
G01X79085Y12893D01*
G01X78922Y12946D01*
G01X78651Y12946D01*
G01X78485Y12893D01*
G01X78376Y12837D01*
G01X78267Y12728D01*
G01X78214Y12618D01*
G01X78214Y12400D01*
G01X78267Y12293D01*
G01X78376Y12184D01*
G01X78485Y12128D01*
G01X79357Y11770D02*
G01X78214Y11770D01*
G01X78214Y11770D02*
G01X78214Y11115D01*
G01X76527Y13434D02*
G01X76636Y13543D01*
G01X76690Y13705D01*
G01X76690Y13924D01*
G01X76636Y14086D01*
G01X76527Y14196D01*
G01X76418Y14196D01*
G01X76309Y14142D01*
G01X76255Y14086D01*
G01X76199Y13977D01*
G01X76090Y13650D01*
G01X76037Y13543D01*
G01X75984Y13487D01*
G01X75874Y13434D01*
G01X75709Y13434D01*
G01X75600Y13543D01*
G01X75547Y13705D01*
G01X75547Y13924D01*
G01X75600Y14086D01*
G01X75709Y14196D01*
G01X76690Y13073D02*
G01X75547Y13073D01*
G01X76690Y13073D02*
G01X76690Y12692D01*
G01X76636Y12527D01*
G01X76527Y12420D01*
G01X76418Y12364D01*
G01X76255Y12311D01*
G01X75984Y12311D01*
G01X75818Y12364D01*
G01X75709Y12420D01*
G01X75600Y12527D01*
G01X75547Y12692D01*
G01X75547Y13073D01*
G01X76690Y11513D02*
G01X75547Y11950D01*
G01X76690Y11513D02*
G01X75547Y11079D01*
G01X75928Y11788D02*
G01X75928Y11242D01*
G01X74150Y14196D02*
G01X73007Y13759D01*
G01X74150Y13324D02*
G01X73007Y13759D01*
G01X73878Y12146D02*
G01X73987Y12202D01*
G01X74096Y12311D01*
G01X74150Y12420D01*
G01X74150Y12636D01*
G01X74096Y12745D01*
G01X73987Y12855D01*
G01X73878Y12910D01*
G01X73715Y12964D01*
G01X73444Y12964D01*
G01X73278Y12910D01*
G01X73169Y12855D01*
G01X73060Y12745D01*
G01X73007Y12636D01*
G01X73007Y12420D01*
G01X73060Y12311D01*
G01X73169Y12202D01*
G01X73278Y12146D01*
G01X73878Y10970D02*
G01X73987Y11023D01*
G01X74096Y11132D01*
G01X74150Y11242D01*
G01X74150Y11460D01*
G01X74096Y11569D01*
G01X73987Y11679D01*
G01X73878Y11732D01*
G01X73715Y11788D01*
G01X73444Y11788D01*
G01X73278Y11732D01*
G01X73169Y11679D01*
G01X73060Y11569D01*
G01X73007Y11460D01*
G01X73007Y11242D01*
G01X73060Y11132D01*
G01X73169Y11023D01*
G01X73278Y10970D01*
G01X71439Y13269D02*
G01X71549Y13324D01*
G01X71658Y13434D01*
G01X71711Y13540D01*
G01X71711Y13759D01*
G01X71658Y13868D01*
G01X71549Y13977D01*
G01X71439Y14033D01*
G01X71277Y14086D01*
G01X71005Y14086D01*
G01X70840Y14033D01*
G01X70731Y13977D01*
G01X70622Y13868D01*
G01X70568Y13759D01*
G01X70568Y13540D01*
G01X70622Y13434D01*
G01X70731Y13324D01*
G01X70840Y13269D01*
G01X71005Y13269D01*
G01X71005Y13540D02*
G01X71005Y13269D01*
G01X71711Y12910D02*
G01X70568Y12910D01*
G01X71711Y12910D02*
G01X70568Y12146D01*
G01X71711Y12146D02*
G01X70568Y12146D01*
G01X71711Y11788D02*
G01X70568Y11788D01*
G01X71711Y11788D02*
G01X71711Y11404D01*
G01X71658Y11242D01*
G01X71549Y11132D01*
G01X71439Y11079D01*
G01X71277Y11023D01*
G01X71005Y11023D01*
G01X70840Y11079D01*
G01X70731Y11132D01*
G01X70622Y11242D01*
G01X70568Y11404D01*
G01X70568Y11788D01*
G01X84449Y13863D02*
G01X84449Y13264D01*
G01X84015Y13591D01*
G01X84015Y13426D01*
G01X83959Y13319D01*
G01X83906Y13264D01*
G01X83743Y13210D01*
G01X83634Y13210D01*
G01X83469Y13264D01*
G01X83360Y13373D01*
G01X83306Y13535D01*
G01X83306Y13700D01*
G01X83360Y13863D01*
G01X83416Y13919D01*
G01X83525Y13972D01*
G01X84178Y12796D02*
G01X84233Y12796D01*
G01X84343Y12740D01*
G01X84396Y12687D01*
G01X84449Y12578D01*
G01X84449Y12359D01*
G01X84396Y12250D01*
G01X84343Y12197D01*
G01X84233Y12141D01*
G01X84124Y12141D01*
G01X84015Y12197D01*
G01X83850Y12303D01*
G01X83306Y12850D01*
G01X83306Y12088D01*
G01X84449Y11727D02*
G01X83306Y11727D01*
G01X84449Y10965D02*
G01X83687Y11727D01*
G01X83959Y11455D02*
G01X83306Y10965D01*
G01X81620Y13337D02*
G01X81729Y13446D01*
G01X81782Y13609D01*
G01X81782Y13827D01*
G01X81729Y13990D01*
G01X81620Y14099D01*
G01X81511Y14099D01*
G01X81401Y14046D01*
G01X81348Y13990D01*
G01X81292Y13881D01*
G01X81183Y13553D01*
G01X81130Y13446D01*
G01X81076Y13391D01*
G01X80967Y13337D01*
G01X80802Y13337D01*
G01X80693Y13446D01*
G01X80639Y13609D01*
G01X80639Y13827D01*
G01X80693Y13990D01*
G01X80802Y14099D01*
G01X81782Y12649D02*
G01X81729Y12758D01*
G01X81620Y12867D01*
G01X81511Y12923D01*
G01X81348Y12977D01*
G01X81076Y12977D01*
G01X80911Y12923D01*
G01X80802Y12867D01*
G01X80693Y12758D01*
G01X80639Y12649D01*
G01X80639Y12430D01*
G01X80693Y12324D01*
G01X80802Y12215D01*
G01X80911Y12159D01*
G01X81076Y12105D01*
G01X81348Y12105D01*
G01X81511Y12159D01*
G01X81620Y12215D01*
G01X81729Y12324D01*
G01X81782Y12430D01*
G01X81782Y12649D01*
G01X80858Y12486D02*
G01X80530Y12159D01*
G01X81782Y11745D02*
G01X80639Y11473D01*
G01X81782Y11201D02*
G01X80639Y11473D01*
G01X81782Y11201D02*
G01X80639Y10927D01*
G01X81782Y10655D02*
G01X80639Y10927D01*
G01X70134Y47614D02*
G01X68196Y47614D01*
G01X70134Y47614D02*
G01X70134Y46413D01*
G01X69212Y47614D02*
G01X69212Y46875D01*
G01X68196Y47614D02*
G01X68196Y46413D01*
G01X70134Y45803D02*
G01X68196Y45803D01*
G01X70134Y45803D02*
G01X70134Y44973D01*
G01X70042Y44696D01*
G01X69951Y44605D01*
G01X69766Y44511D01*
G01X69489Y44511D01*
G01X69303Y44605D01*
G01X69212Y44696D01*
G01X69118Y44973D01*
G01X69118Y45803D01*
G01X70134Y43901D02*
G01X68196Y43901D01*
G01X70134Y43901D02*
G01X70134Y43070D01*
G01X70042Y42794D01*
G01X69951Y42700D01*
G01X69766Y42608D01*
G01X69580Y42608D01*
G01X69395Y42700D01*
G01X69303Y42794D01*
G01X69212Y43070D01*
G01X69212Y43901D01*
G01X69212Y43256D02*
G01X68196Y42608D01*
G01X70134Y41445D02*
G01X70042Y41630D01*
G01X69857Y41813D01*
G01X69674Y41907D01*
G01X69395Y41999D01*
G01X68935Y41999D01*
G01X68658Y41907D01*
G01X68473Y41813D01*
G01X68287Y41630D01*
G01X68196Y41445D01*
G01X68196Y41074D01*
G01X68287Y40891D01*
G01X68473Y40706D01*
G01X68658Y40614D01*
G01X68935Y40520D01*
G01X69395Y40520D01*
G01X69674Y40614D01*
G01X69857Y40706D01*
G01X70042Y40891D01*
G01X70134Y41074D01*
G01X70134Y41445D01*
G01X70134Y39911D02*
G01X68196Y39911D01*
G01X70134Y39911D02*
G01X68196Y39172D01*
G01X70134Y38432D02*
G01X68196Y39172D01*
G01X70134Y38432D02*
G01X68196Y38432D01*
G01X69674Y36309D02*
G01X69766Y36309D01*
G01X69951Y36218D01*
G01X70042Y36124D01*
G01X70134Y35941D01*
G01X70134Y35570D01*
G01X70042Y35384D01*
G01X69951Y35293D01*
G01X69766Y35202D01*
G01X69580Y35202D01*
G01X69395Y35293D01*
G01X69118Y35478D01*
G01X68196Y36400D01*
G01X68196Y35108D01*
G01X70134Y33576D02*
G01X68841Y34498D01*
G01X68841Y33114D01*
G01X70134Y33576D02*
G01X68196Y33576D01*
G01X69212Y31397D02*
G01X69395Y31579D01*
G01X69489Y31765D01*
G01X69489Y32042D01*
G01X69395Y32227D01*
G01X69212Y32413D01*
G01X68935Y32504D01*
G01X68750Y32504D01*
G01X68473Y32413D01*
G01X68287Y32227D01*
G01X68196Y32042D01*
G01X68196Y31765D01*
G01X68287Y31579D01*
G01X68473Y31397D01*
G01X70134Y30602D02*
G01X70134Y29586D01*
G01X69395Y30139D01*
G01X69395Y29862D01*
G01X69303Y29677D01*
G01X69212Y29586D01*
G01X68935Y29492D01*
G01X68750Y29492D01*
G01X68473Y29586D01*
G01X68287Y29771D01*
G01X68196Y30048D01*
G01X68196Y30325D01*
G01X68287Y30602D01*
G01X68379Y30693D01*
G01X68564Y30787D01*
G01X69674Y28791D02*
G01X69766Y28791D01*
G01X69951Y28699D01*
G01X70042Y28605D01*
G01X70134Y28422D01*
G01X70134Y28051D01*
G01X70042Y27866D01*
G01X69951Y27775D01*
G01X69766Y27683D01*
G01X69580Y27683D01*
G01X69395Y27775D01*
G01X69118Y27960D01*
G01X68196Y28882D01*
G01X68196Y27589D01*
G01X69489Y25557D02*
G01X68196Y25557D01*
G01X69118Y25557D02*
G01X69395Y25280D01*
G01X69489Y25097D01*
G01X69489Y24818D01*
G01X69395Y24635D01*
G01X69118Y24541D01*
G01X68196Y24541D01*
G01X69118Y24541D02*
G01X69395Y24264D01*
G01X69489Y24081D01*
G01X69489Y23802D01*
G01X69395Y23619D01*
G01X69118Y23525D01*
G01X68196Y23525D01*
G01X69489Y22456D02*
G01X69395Y22639D01*
G01X69212Y22824D01*
G01X68935Y22916D01*
G01X68750Y22916D01*
G01X68473Y22824D01*
G01X68287Y22639D01*
G01X68196Y22456D01*
G01X68196Y22176D01*
G01X68287Y21994D01*
G01X68473Y21808D01*
G01X68750Y21717D01*
G01X68935Y21717D01*
G01X69212Y21808D01*
G01X69395Y21994D01*
G01X69489Y22176D01*
G01X69489Y22456D01*
G01X70134Y19997D02*
G01X68196Y19997D01*
G01X69212Y19997D02*
G01X69395Y20182D01*
G01X69489Y20368D01*
G01X69489Y20645D01*
G01X69395Y20830D01*
G01X69212Y21013D01*
G01X68935Y21107D01*
G01X68750Y21107D01*
G01X68473Y21013D01*
G01X68287Y20830D01*
G01X68196Y20645D01*
G01X68196Y20368D01*
G01X68287Y20182D01*
G01X68473Y19997D01*
G01X69489Y19387D02*
G01X68564Y19387D01*
G01X68287Y19296D01*
G01X68196Y19111D01*
G01X68196Y18834D01*
G01X68287Y18648D01*
G01X68564Y18371D01*
G01X69489Y18371D02*
G01X68196Y18371D01*
G01X70134Y17762D02*
G01X68196Y17762D01*
G01X68935Y17152D02*
G01X68935Y16045D01*
G01X69118Y16045D01*
G01X69303Y16136D01*
G01X69395Y16230D01*
G01X69489Y16413D01*
G01X69489Y16690D01*
G01X69395Y16875D01*
G01X69212Y17061D01*
G01X68935Y17152D01*
G01X68750Y17152D01*
G01X68473Y17061D01*
G01X68287Y16875D01*
G01X68196Y16690D01*
G01X68196Y16413D01*
G01X68287Y16230D01*
G01X68473Y16045D01*
G01X81236Y33771D02*
G01X80093Y33771D01*
G01X80093Y33771D02*
G01X80093Y33119D01*
G01X81236Y32758D02*
G01X80093Y32758D01*
G01X81236Y32397D02*
G01X80093Y32397D01*
G01X81236Y32397D02*
G01X81236Y31907D01*
G01X81183Y31745D01*
G01X81130Y31689D01*
G01X81020Y31635D01*
G01X80911Y31635D01*
G01X80802Y31689D01*
G01X80746Y31745D01*
G01X80693Y31907D01*
G01X80693Y32397D01*
G01X80693Y32016D02*
G01X80093Y31635D01*
G01X80964Y31221D02*
G01X81020Y31221D01*
G01X81130Y31165D01*
G01X81183Y31112D01*
G01X81236Y31003D01*
G01X81236Y30784D01*
G01X81183Y30675D01*
G01X81130Y30622D01*
G01X81020Y30566D01*
G01X80911Y30566D01*
G01X80802Y30622D01*
G01X80637Y30731D01*
G01X80093Y31275D01*
G01X80093Y30513D01*
G01X81236Y29827D02*
G01X81183Y29989D01*
G01X81020Y30099D01*
G01X80746Y30152D01*
G01X80583Y30152D01*
G01X80312Y30099D01*
G01X80147Y29989D01*
G01X80093Y29827D01*
G01X80093Y29718D01*
G01X80147Y29553D01*
G01X80312Y29446D01*
G01X80583Y29390D01*
G01X80746Y29390D01*
G01X81020Y29446D01*
G01X81183Y29553D01*
G01X81236Y29718D01*
G01X81236Y29827D01*
G01X81236Y28923D02*
G01X81236Y28323D01*
G01X80802Y28648D01*
G01X80802Y28486D01*
G01X80746Y28377D01*
G01X80693Y28323D01*
G01X80530Y28267D01*
G01X80421Y28267D01*
G01X80256Y28323D01*
G01X80147Y28430D01*
G01X80093Y28595D01*
G01X80093Y28758D01*
G01X80147Y28923D01*
G01X80202Y28976D01*
G01X80312Y29029D01*
G01X80964Y27853D02*
G01X81020Y27853D01*
G01X81130Y27800D01*
G01X81183Y27744D01*
G01X81236Y27635D01*
G01X81236Y27416D01*
G01X81183Y27307D01*
G01X81130Y27254D01*
G01X81020Y27201D01*
G01X80911Y27201D01*
G01X80802Y27254D01*
G01X80637Y27363D01*
G01X80093Y27907D01*
G01X80093Y27145D01*
G01X78750Y32954D02*
G01X78859Y33009D01*
G01X78968Y33119D01*
G01X79021Y33225D01*
G01X79021Y33444D01*
G01X78968Y33553D01*
G01X78859Y33662D01*
G01X78750Y33718D01*
G01X78587Y33771D01*
G01X78315Y33771D01*
G01X78150Y33718D01*
G01X78041Y33662D01*
G01X77932Y33553D01*
G01X77878Y33444D01*
G01X77878Y33225D01*
G01X77932Y33119D01*
G01X78041Y33009D01*
G01X78150Y32954D01*
G01X79021Y32595D02*
G01X77878Y32595D01*
G01X79021Y32595D02*
G01X79021Y32103D01*
G01X78968Y31940D01*
G01X78915Y31887D01*
G01X78805Y31831D01*
G01X78696Y31831D01*
G01X78587Y31887D01*
G01X78531Y31940D01*
G01X78478Y32103D01*
G01X78478Y32595D01*
G01X78478Y32212D02*
G01X77878Y31831D01*
G01X78750Y31417D02*
G01X78805Y31417D01*
G01X78915Y31364D01*
G01X78968Y31308D01*
G01X79021Y31198D01*
G01X79021Y30983D01*
G01X78968Y30873D01*
G01X78915Y30817D01*
G01X78805Y30764D01*
G01X78696Y30764D01*
G01X78587Y30817D01*
G01X78422Y30927D01*
G01X77878Y31473D01*
G01X77878Y30708D01*
G01X79021Y30022D02*
G01X78968Y30185D01*
G01X78805Y30294D01*
G01X78531Y30350D01*
G01X78369Y30350D01*
G01X78097Y30294D01*
G01X77932Y30185D01*
G01X77878Y30022D01*
G01X77878Y29913D01*
G01X77932Y29751D01*
G01X78097Y29641D01*
G01X78369Y29586D01*
G01X78531Y29586D01*
G01X78805Y29641D01*
G01X78968Y29751D01*
G01X79021Y29913D01*
G01X79021Y30022D01*
G01X79021Y29118D02*
G01X79021Y28519D01*
G01X78587Y28846D01*
G01X78587Y28681D01*
G01X78531Y28572D01*
G01X78478Y28519D01*
G01X78315Y28463D01*
G01X78206Y28463D01*
G01X78041Y28519D01*
G01X77932Y28628D01*
G01X77878Y28791D01*
G01X77878Y28953D01*
G01X77932Y29118D01*
G01X77988Y29172D01*
G01X78097Y29227D01*
G01X78750Y28049D02*
G01X78805Y28049D01*
G01X78915Y27996D01*
G01X78968Y27940D01*
G01X79021Y27830D01*
G01X79021Y27615D01*
G01X78968Y27505D01*
G01X78915Y27449D01*
G01X78805Y27396D01*
G01X78696Y27396D01*
G01X78587Y27449D01*
G01X78422Y27559D01*
G01X77878Y28105D01*
G01X77878Y27340D01*
G54D26*
G01X134708Y12408D02*
G01X134708Y11318D01*
G01X134708Y11318D02*
G01X135330Y11318D01*
G01X135673Y12408D02*
G01X135673Y11318D01*
G01X135673Y12408D02*
G01X136348Y12408D01*
G01X135673Y11889D02*
G01X136089Y11889D01*
G01X135673Y11318D02*
G01X136348Y11318D01*
G01X136691Y12408D02*
G01X136691Y11318D01*
G01X136691Y12408D02*
G01X137057Y12408D01*
G01X137212Y12357D01*
G01X137316Y12253D01*
G01X137367Y12149D01*
G01X137420Y11991D01*
G01X137420Y11732D01*
G01X137367Y11577D01*
G01X137316Y11473D01*
G01X137212Y11369D01*
G01X137057Y11318D01*
G01X136691Y11318D01*
G01X137867Y12408D02*
G01X138439Y12408D01*
G01X138126Y11991D01*
G01X138281Y11991D01*
G01X138385Y11940D01*
G01X138439Y11889D01*
G01X138490Y11732D01*
G01X138490Y11628D01*
G01X138439Y11473D01*
G01X138335Y11369D01*
G01X138177Y11318D01*
G01X138022Y11318D01*
G01X137867Y11369D01*
G01X137814Y11420D01*
G01X137763Y11524D01*
G01X107911Y12662D02*
G01X107911Y11572D01*
G01X107911Y11572D02*
G01X108533Y11572D01*
G01X108876Y12662D02*
G01X108876Y11572D01*
G01X108876Y12662D02*
G01X109551Y12662D01*
G01X108876Y12143D02*
G01X109292Y12143D01*
G01X108876Y11572D02*
G01X109551Y11572D01*
G01X109894Y12662D02*
G01X109894Y11572D01*
G01X109894Y12662D02*
G01X110260Y12662D01*
G01X110415Y12611D01*
G01X110519Y12507D01*
G01X110570Y12403D01*
G01X110623Y12245D01*
G01X110623Y11986D01*
G01X110570Y11831D01*
G01X110519Y11727D01*
G01X110415Y11623D01*
G01X110260Y11572D01*
G01X109894Y11572D01*
G01X111484Y12662D02*
G01X110966Y11935D01*
G01X111746Y11935D01*
G01X111484Y12662D02*
G01X111484Y11572D01*
G01X52008Y93345D02*
G01X52008Y92255D01*
G01X52008Y93345D02*
G01X52476Y93345D01*
G01X52631Y93294D01*
G01X52684Y93241D01*
G01X52735Y93136D01*
G01X52735Y92981D01*
G01X52684Y92877D01*
G01X52631Y92826D01*
G01X52476Y92773D01*
G01X52008Y92773D01*
G01X53078Y93345D02*
G01X53078Y92255D01*
G01X53078Y93345D02*
G01X53545Y93345D01*
G01X53703Y93294D01*
G01X53753Y93241D01*
G01X53807Y93136D01*
G01X53807Y93032D01*
G01X53753Y92928D01*
G01X53703Y92877D01*
G01X53545Y92826D01*
G01X53078Y92826D01*
G01X53444Y92826D02*
G01X53807Y92255D01*
G01X54150Y93136D02*
G01X54254Y93190D01*
G01X54409Y93345D01*
G01X54409Y92255D01*
G01X125795Y31983D02*
G01X125795Y32763D01*
G01X125745Y32918D01*
G01X125641Y33022D01*
G01X125483Y33073D01*
G01X125379Y33073D01*
G01X125224Y33022D01*
G01X125120Y32918D01*
G01X125069Y32763D01*
G01X125069Y31983D01*
G01X124101Y31983D02*
G01X124622Y31983D01*
G01X124673Y32451D01*
G01X124622Y32400D01*
G01X124465Y32347D01*
G01X124310Y32347D01*
G01X124155Y32400D01*
G01X124051Y32501D01*
G01X123997Y32659D01*
G01X123997Y32763D01*
G01X124051Y32918D01*
G01X124155Y33022D01*
G01X124310Y33073D01*
G01X124465Y33073D01*
G01X124622Y33022D01*
G01X124673Y32971D01*
G01X124726Y32867D01*
G54D27*
G01X110390Y38608D02*
G01X110428Y38534D01*
G01X110500Y38460D01*
G01X110573Y38425D01*
G01X110718Y38425D01*
G01X110792Y38460D01*
G01X110863Y38534D01*
G01X110901Y38608D01*
G01X110936Y38717D01*
G01X110936Y38897D01*
G01X110901Y39006D01*
G01X110863Y39080D01*
G01X110792Y39154D01*
G01X110718Y39189D01*
G01X110573Y39189D01*
G01X110500Y39154D01*
G01X110428Y39080D01*
G01X110390Y39006D01*
G01X110390Y38897D01*
G01X110573Y38897D02*
G01X110390Y38897D01*
G01X110152Y38425D02*
G01X110152Y39189D01*
G01X110152Y38425D02*
G01X109641Y39189D01*
G01X109641Y38425D02*
G01X109641Y39189D01*
G01X109402Y38425D02*
G01X109402Y39189D01*
G01X109402Y38425D02*
G01X109148Y38425D01*
G01X109039Y38460D01*
G01X108965Y38534D01*
G01X108930Y38608D01*
G01X108892Y38717D01*
G01X108892Y38897D01*
G01X108930Y39006D01*
G01X108965Y39080D01*
G01X109039Y39154D01*
G01X109148Y39189D01*
G01X109402Y39189D01*
G01X111444Y40965D02*
G01X111152Y41729D01*
G01X110863Y40965D02*
G01X111152Y41729D01*
G01X110078Y41148D02*
G01X110114Y41074D01*
G01X110187Y41000D01*
G01X110258Y40965D01*
G01X110406Y40965D01*
G01X110477Y41000D01*
G01X110550Y41074D01*
G01X110586Y41148D01*
G01X110622Y41257D01*
G01X110622Y41437D01*
G01X110586Y41546D01*
G01X110550Y41620D01*
G01X110477Y41694D01*
G01X110406Y41729D01*
G01X110258Y41729D01*
G01X110187Y41694D01*
G01X110114Y41620D01*
G01X110078Y41546D01*
G01X109291Y41148D02*
G01X109329Y41074D01*
G01X109400Y41000D01*
G01X109473Y40965D01*
G01X109618Y40965D01*
G01X109692Y41000D01*
G01X109766Y41074D01*
G01X109801Y41148D01*
G01X109837Y41257D01*
G01X109837Y41437D01*
G01X109801Y41546D01*
G01X109766Y41620D01*
G01X109692Y41694D01*
G01X109618Y41729D01*
G01X109473Y41729D01*
G01X109400Y41694D01*
G01X109329Y41620D01*
G01X109291Y41546D01*
G01X111190Y43378D02*
G01X111190Y44142D01*
G01X111190Y43378D02*
G01X110898Y44142D01*
G01X110609Y43378D02*
G01X110898Y44142D01*
G01X110609Y43378D02*
G01X110609Y44142D01*
G01X110368Y43378D02*
G01X110368Y44142D01*
G01X109621Y43487D02*
G01X109692Y43413D01*
G01X109801Y43378D01*
G01X109946Y43378D01*
G01X110055Y43413D01*
G01X110129Y43487D01*
G01X110129Y43561D01*
G01X110093Y43632D01*
G01X110055Y43670D01*
G01X109984Y43705D01*
G01X109766Y43779D01*
G01X109692Y43815D01*
G01X109656Y43850D01*
G01X109621Y43924D01*
G01X109621Y44033D01*
G01X109692Y44107D01*
G01X109801Y44142D01*
G01X109946Y44142D01*
G01X110055Y44107D01*
G01X110129Y44033D01*
G01X109161Y43378D02*
G01X109235Y43413D01*
G01X109306Y43487D01*
G01X109344Y43561D01*
G01X109379Y43670D01*
G01X109379Y43850D01*
G01X109344Y43959D01*
G01X109306Y44033D01*
G01X109235Y44107D01*
G01X109161Y44142D01*
G01X109016Y44142D01*
G01X108943Y44107D01*
G01X108871Y44033D01*
G01X108833Y43959D01*
G01X108798Y43850D01*
G01X108798Y43670D01*
G01X108833Y43561D01*
G01X108871Y43487D01*
G01X108943Y43413D01*
G01X109016Y43378D01*
G01X109161Y43378D01*
G01X111063Y45918D02*
G01X111063Y46682D01*
G01X111063Y45918D02*
G01X110771Y46682D01*
G01X110482Y45918D02*
G01X110771Y46682D01*
G01X110482Y45918D02*
G01X110482Y46682D01*
G01X110025Y45918D02*
G01X110096Y45953D01*
G01X110169Y46027D01*
G01X110205Y46101D01*
G01X110241Y46210D01*
G01X110241Y46390D01*
G01X110205Y46499D01*
G01X110169Y46573D01*
G01X110096Y46647D01*
G01X110025Y46682D01*
G01X109877Y46682D01*
G01X109806Y46647D01*
G01X109733Y46573D01*
G01X109697Y46499D01*
G01X109659Y46390D01*
G01X109659Y46210D01*
G01X109697Y46101D01*
G01X109733Y46027D01*
G01X109806Y45953D01*
G01X109877Y45918D01*
G01X110025Y45918D01*
G01X108910Y46027D02*
G01X108983Y45953D01*
G01X109092Y45918D01*
G01X109237Y45918D01*
G01X109346Y45953D01*
G01X109420Y46027D01*
G01X109420Y46101D01*
G01X109385Y46172D01*
G01X109346Y46210D01*
G01X109275Y46245D01*
G01X109057Y46319D01*
G01X108983Y46355D01*
G01X108948Y46390D01*
G01X108910Y46464D01*
G01X108910Y46573D01*
G01X108983Y46647D01*
G01X109092Y46682D01*
G01X109237Y46682D01*
G01X109346Y46647D01*
G01X109420Y46573D01*
G01X108671Y45918D02*
G01X108671Y46682D01*
G01X110555Y48821D02*
G01X110627Y48747D01*
G01X110736Y48712D01*
G01X110881Y48712D01*
G01X110990Y48747D01*
G01X111063Y48821D01*
G01X111063Y48895D01*
G01X111028Y48966D01*
G01X110990Y49004D01*
G01X110919Y49039D01*
G01X110700Y49113D01*
G01X110627Y49149D01*
G01X110591Y49184D01*
G01X110555Y49258D01*
G01X110555Y49367D01*
G01X110627Y49441D01*
G01X110736Y49476D01*
G01X110881Y49476D01*
G01X110990Y49441D01*
G01X111063Y49367D01*
G01X109768Y48895D02*
G01X109806Y48821D01*
G01X109877Y48747D01*
G01X109951Y48712D01*
G01X110096Y48712D01*
G01X110169Y48747D01*
G01X110241Y48821D01*
G01X110279Y48895D01*
G01X110314Y49004D01*
G01X110314Y49184D01*
G01X110279Y49293D01*
G01X110241Y49367D01*
G01X110169Y49441D01*
G01X110096Y49476D01*
G01X109951Y49476D01*
G01X109877Y49441D01*
G01X109806Y49367D01*
G01X109768Y49293D01*
G01X109529Y48712D02*
G01X109529Y49476D01*
G01X109019Y48712D02*
G01X109529Y49222D01*
G01X109346Y49039D02*
G01X109019Y49476D01*
G01X110517Y51308D02*
G01X110555Y51234D01*
G01X110627Y51160D01*
G01X110700Y51125D01*
G01X110845Y51125D01*
G01X110919Y51160D01*
G01X110990Y51234D01*
G01X111028Y51308D01*
G01X111063Y51417D01*
G01X111063Y51597D01*
G01X111028Y51706D01*
G01X110990Y51780D01*
G01X110919Y51854D01*
G01X110845Y51889D01*
G01X110700Y51889D01*
G01X110627Y51854D01*
G01X110555Y51780D01*
G01X110517Y51706D01*
G01X109768Y51234D02*
G01X109842Y51160D01*
G01X109951Y51125D01*
G01X110096Y51125D01*
G01X110205Y51160D01*
G01X110279Y51234D01*
G01X110279Y51308D01*
G01X110241Y51379D01*
G01X110205Y51417D01*
G01X110134Y51452D01*
G01X109915Y51526D01*
G01X109842Y51562D01*
G01X109806Y51597D01*
G01X109768Y51671D01*
G01X109768Y51780D01*
G01X109842Y51854D01*
G01X109951Y51889D01*
G01X110096Y51889D01*
G01X110205Y51854D01*
G01X110279Y51780D01*
G01X128714Y35011D02*
G01X128823Y34902D01*
G01X128988Y34846D01*
G01X129207Y34846D01*
G01X129369Y34902D01*
G01X129478Y35011D01*
G01X129478Y35120D01*
G01X129425Y35229D01*
G01X129369Y35283D01*
G01X129260Y35339D01*
G01X128932Y35445D01*
G01X128823Y35501D01*
G01X128770Y35555D01*
G01X128714Y35664D01*
G01X128714Y35829D01*
G01X128823Y35938D01*
G01X128988Y35991D01*
G01X129207Y35991D01*
G01X129369Y35938D01*
G01X129478Y35829D01*
G01X128356Y34846D02*
G01X128356Y35991D01*
G01X128356Y34846D02*
G01X127972Y34846D01*
G01X127810Y34902D01*
G01X127700Y35011D01*
G01X127645Y35120D01*
G01X127591Y35283D01*
G01X127591Y35555D01*
G01X127645Y35720D01*
G01X127700Y35829D01*
G01X127810Y35938D01*
G01X127972Y35991D01*
G01X128356Y35991D01*
G01X125572Y35120D02*
G01X125628Y35011D01*
G01X125737Y34902D01*
G01X125846Y34846D01*
G01X126065Y34846D01*
G01X126174Y34902D01*
G01X126283Y35011D01*
G01X126337Y35120D01*
G01X126392Y35283D01*
G01X126392Y35555D01*
G01X126337Y35720D01*
G01X126283Y35829D01*
G01X126174Y35938D01*
G01X126065Y35991D01*
G01X125846Y35991D01*
G01X125737Y35938D01*
G01X125628Y35829D01*
G01X125572Y35720D01*
G01X124559Y35229D02*
G01X124559Y35991D01*
G01X124559Y35392D02*
G01X124668Y35283D01*
G01X124777Y35229D01*
G01X124940Y35229D01*
G01X125049Y35283D01*
G01X125158Y35392D01*
G01X125214Y35555D01*
G01X125214Y35664D01*
G01X125158Y35829D01*
G01X125049Y35938D01*
G01X124940Y35991D01*
G01X124777Y35991D01*
G01X124668Y35938D01*
G01X124559Y35829D01*
G01X124198Y35229D02*
G01X124198Y35991D01*
G01X124198Y35555D02*
G01X124144Y35392D01*
G01X124035Y35283D01*
G01X123926Y35229D01*
G01X123761Y35229D01*
G01X122747Y34846D02*
G01X122747Y35991D01*
G01X122747Y35392D02*
G01X122857Y35283D01*
G01X122966Y35229D01*
G01X123128Y35229D01*
G01X123238Y35283D01*
G01X123347Y35392D01*
G01X123403Y35555D01*
G01X123403Y35664D01*
G01X123347Y35829D01*
G01X123238Y35938D01*
G01X123128Y35991D01*
G01X122966Y35991D01*
G01X122857Y35938D01*
G01X122747Y35829D01*
G01X121549Y34846D02*
G01X121549Y35991D01*
G01X121549Y34846D02*
G01X121056Y34846D01*
G01X120893Y34902D01*
G01X120837Y34955D01*
G01X120784Y35064D01*
G01X120784Y35174D01*
G01X120837Y35283D01*
G01X120893Y35339D01*
G01X121056Y35392D01*
G01X121549Y35392D01*
G01X121165Y35392D02*
G01X120784Y35991D01*
G01X120423Y35555D02*
G01X119771Y35555D01*
G01X119771Y35445D01*
G01X119824Y35339D01*
G01X119877Y35283D01*
G01X119987Y35229D01*
G01X120152Y35229D01*
G01X120261Y35283D01*
G01X120370Y35392D01*
G01X120423Y35555D01*
G01X120423Y35664D01*
G01X120370Y35829D01*
G01X120261Y35938D01*
G01X120152Y35991D01*
G01X119987Y35991D01*
G01X119877Y35938D01*
G01X119771Y35829D01*
G01X118755Y35229D02*
G01X118755Y35991D01*
G01X118755Y35392D02*
G01X118864Y35283D01*
G01X118973Y35229D01*
G01X119136Y35229D01*
G01X119245Y35283D01*
G01X119354Y35392D01*
G01X119410Y35555D01*
G01X119410Y35664D01*
G01X119354Y35829D01*
G01X119245Y35938D01*
G01X119136Y35991D01*
G01X118973Y35991D01*
G01X118864Y35938D01*
G01X118755Y35829D01*
G01X117741Y34846D02*
G01X117741Y35991D01*
G01X117741Y35392D02*
G01X117850Y35283D01*
G01X117960Y35229D01*
G01X118122Y35229D01*
G01X118231Y35283D01*
G01X118341Y35392D01*
G01X118394Y35555D01*
G01X118394Y35664D01*
G01X118341Y35829D01*
G01X118231Y35938D01*
G01X118122Y35991D01*
G01X117960Y35991D01*
G01X117850Y35938D01*
G01X117741Y35829D01*
G01X117380Y35555D02*
G01X116725Y35555D01*
G01X116725Y35445D01*
G01X116781Y35339D01*
G01X116834Y35283D01*
G01X116944Y35229D01*
G01X117109Y35229D01*
G01X117218Y35283D01*
G01X117325Y35392D01*
G01X117380Y35555D01*
G01X117380Y35664D01*
G01X117325Y35829D01*
G01X117218Y35938D01*
G01X117109Y35991D01*
G01X116944Y35991D01*
G01X116834Y35938D01*
G01X116725Y35829D01*
G01X116367Y35229D02*
G01X116367Y35991D01*
G01X116367Y35555D02*
G01X116311Y35392D01*
G01X116202Y35283D01*
G01X116093Y35229D01*
G01X115930Y35229D01*
G01X114729Y34846D02*
G01X114729Y35991D01*
G01X114729Y34846D02*
G01X114292Y35991D01*
G01X113857Y34846D02*
G01X114292Y35991D01*
G01X113857Y34846D02*
G01X113857Y35991D01*
G01X113225Y35229D02*
G01X113334Y35283D01*
G01X113441Y35392D01*
G01X113497Y35555D01*
G01X113497Y35664D01*
G01X113441Y35829D01*
G01X113334Y35938D01*
G01X113225Y35991D01*
G01X113060Y35991D01*
G01X112951Y35938D01*
G01X112841Y35829D01*
G01X112788Y35664D01*
G01X112788Y35555D01*
G01X112841Y35392D01*
G01X112951Y35283D01*
G01X113060Y35229D01*
G01X113225Y35229D01*
G01X111772Y34846D02*
G01X111772Y35991D01*
G01X111772Y35392D02*
G01X111881Y35283D01*
G01X111991Y35229D01*
G01X112156Y35229D01*
G01X112265Y35283D01*
G01X112374Y35392D01*
G01X112427Y35555D01*
G01X112427Y35664D01*
G01X112374Y35829D01*
G01X112265Y35938D01*
G01X112156Y35991D01*
G01X111991Y35991D01*
G01X111881Y35938D01*
G01X111772Y35829D01*
G01X111414Y35229D02*
G01X111414Y35773D01*
G01X111358Y35938D01*
G01X111249Y35991D01*
G01X111086Y35991D01*
G01X110977Y35938D01*
G01X110812Y35773D01*
G01X110812Y35229D02*
G01X110812Y35991D01*
G01X110454Y34846D02*
G01X110454Y35991D01*
G54D26*
G01X96331Y46228D02*
G01X96331Y45138D01*
G01X96331Y46228D02*
G01X96799Y46228D01*
G01X96954Y46177D01*
G01X97007Y46124D01*
G01X97058Y46019D01*
G01X97058Y45915D01*
G01X97007Y45811D01*
G01X96954Y45760D01*
G01X96799Y45709D01*
G01X96331Y45709D01*
G01X96695Y45709D02*
G01X97058Y45138D01*
G01X97505Y46228D02*
G01X98076Y46228D01*
G01X97767Y45811D01*
G01X97922Y45811D01*
G01X98026Y45760D01*
G01X98076Y45709D01*
G01X98130Y45552D01*
G01X98130Y45448D01*
G01X98076Y45293D01*
G01X97972Y45189D01*
G01X97817Y45138D01*
G01X97662Y45138D01*
G01X97505Y45189D01*
G01X97454Y45240D01*
G01X97401Y45344D01*
G01X131246Y21579D02*
G01X132336Y21579D01*
G01X131246Y21579D02*
G01X131246Y22047D01*
G01X131297Y22202D01*
G01X131350Y22255D01*
G01X131455Y22306D01*
G01X131559Y22306D01*
G01X131663Y22255D01*
G01X131714Y22202D01*
G01X131764Y22047D01*
G01X131764Y21579D01*
G01X131764Y21943D02*
G01X132336Y22306D01*
G01X131455Y22649D02*
G01X131401Y22753D01*
G01X131246Y22910D01*
G01X132336Y22910D01*
G01X104576Y22341D02*
G01X105666Y22341D01*
G01X104576Y22341D02*
G01X104576Y22809D01*
G01X104627Y22964D01*
G01X104680Y23017D01*
G01X104785Y23068D01*
G01X104889Y23068D01*
G01X104993Y23017D01*
G01X105044Y22964D01*
G01X105094Y22809D01*
G01X105094Y22341D01*
G01X105094Y22705D02*
G01X105666Y23068D01*
G01X104835Y23464D02*
G01X104785Y23464D01*
G01X104680Y23515D01*
G01X104627Y23568D01*
G01X104576Y23672D01*
G01X104576Y23878D01*
G01X104627Y23982D01*
G01X104680Y24036D01*
G01X104785Y24086D01*
G01X104889Y24086D01*
G01X104993Y24036D01*
G01X105148Y23932D01*
G01X105666Y23411D01*
G01X105666Y24140D01*
G01X106749Y98939D02*
G01X106749Y97849D01*
G01X106749Y98939D02*
G01X107113Y98939D01*
G01X107270Y98888D01*
G01X107372Y98784D01*
G01X107425Y98680D01*
G01X107476Y98522D01*
G01X107476Y98263D01*
G01X107425Y98108D01*
G01X107372Y98004D01*
G01X107270Y97900D01*
G01X107113Y97849D01*
G01X106749Y97849D01*
G01X108548Y98784D02*
G01X108443Y98888D01*
G01X108286Y98939D01*
G01X108080Y98939D01*
G01X107923Y98888D01*
G01X107819Y98784D01*
G01X107819Y98680D01*
G01X107872Y98576D01*
G01X107923Y98522D01*
G01X108027Y98472D01*
G01X108339Y98368D01*
G01X108443Y98317D01*
G01X108494Y98263D01*
G01X108548Y98159D01*
G01X108548Y98004D01*
G01X108443Y97900D01*
G01X108286Y97849D01*
G01X108080Y97849D01*
G01X107923Y97900D01*
G01X107819Y98004D01*
G01X108941Y98680D02*
G01X108941Y98731D01*
G01X108995Y98835D01*
G01X109045Y98888D01*
G01X109150Y98939D01*
G01X109358Y98939D01*
G01X109462Y98888D01*
G01X109513Y98835D01*
G01X109566Y98731D01*
G01X109566Y98627D01*
G01X109513Y98522D01*
G01X109409Y98368D01*
G01X108891Y97849D01*
G01X109617Y97849D01*
G01X122966Y17625D02*
G01X122862Y17729D01*
G01X122707Y17780D01*
G01X122499Y17780D01*
G01X122344Y17729D01*
G01X122239Y17625D01*
G01X122239Y17521D01*
G01X122290Y17416D01*
G01X122344Y17363D01*
G01X122448Y17312D01*
G01X122760Y17208D01*
G01X122862Y17157D01*
G01X122915Y17104D01*
G01X122966Y17000D01*
G01X122966Y16845D01*
G01X122862Y16741D01*
G01X122707Y16690D01*
G01X122499Y16690D01*
G01X122344Y16741D01*
G01X122239Y16845D01*
G01X124089Y17521D02*
G01X124038Y17625D01*
G01X123934Y17729D01*
G01X123830Y17780D01*
G01X123621Y17780D01*
G01X123517Y17729D01*
G01X123413Y17625D01*
G01X123362Y17521D01*
G01X123309Y17363D01*
G01X123309Y17104D01*
G01X123362Y16949D01*
G01X123413Y16845D01*
G01X123517Y16741D01*
G01X123621Y16690D01*
G01X123830Y16690D01*
G01X123934Y16741D01*
G01X124038Y16845D01*
G01X124089Y16949D01*
G01X124089Y17104D01*
G01X123830Y17104D02*
G01X124089Y17104D01*
G01X124485Y17521D02*
G01X124485Y17571D01*
G01X124536Y17676D01*
G01X124589Y17729D01*
G01X124691Y17780D01*
G01X124899Y17780D01*
G01X125003Y17729D01*
G01X125056Y17676D01*
G01X125107Y17571D01*
G01X125107Y17467D01*
G01X125056Y17363D01*
G01X124952Y17208D01*
G01X124432Y16690D01*
G01X125160Y16690D01*
G01X25719Y92202D02*
G01X25719Y91422D01*
G01X25770Y91267D01*
G01X25874Y91163D01*
G01X26032Y91112D01*
G01X26136Y91112D01*
G01X26291Y91163D01*
G01X26395Y91267D01*
G01X26446Y91422D01*
G01X26446Y92202D01*
G01X27464Y91838D02*
G01X27414Y91683D01*
G01X27310Y91579D01*
G01X27155Y91526D01*
G01X27101Y91526D01*
G01X26946Y91579D01*
G01X26842Y91683D01*
G01X26789Y91838D01*
G01X26789Y91889D01*
G01X26842Y92047D01*
G01X26946Y92151D01*
G01X27101Y92202D01*
G01X27155Y92202D01*
G01X27310Y92151D01*
G01X27414Y92047D01*
G01X27464Y91838D01*
G01X27464Y91579D01*
G01X27414Y91318D01*
G01X27310Y91163D01*
G01X27155Y91112D01*
G01X27050Y91112D01*
G01X26893Y91163D01*
G01X26842Y91267D01*

%LPD*%
G36*
G01X27749Y88488D02*
G01X27718Y88503D01*
G01X27376Y88409D01*
G01X27376Y88343D01*
G01X27556Y88326D01*
G01X27556Y87325D01*
G01X27555Y87232D01*
G01X27553Y87044D01*
G01X27551Y86951D01*
G01X27376Y86926D01*
G01X27376Y86857D01*
G01X27922Y86857D01*
G01X27922Y86926D01*
G01X27741Y86951D01*
G01X27741Y87044D01*
G01X27739Y87232D01*
G01X27739Y88171D01*
G01X27749Y88488D01*
G37*

%LPD*%
G36*
G01X22072Y88346D02*
G01X21666Y88346D01*
G01X21666Y88270D01*
G01X21869Y88244D01*
G01X21869Y86964D01*
G01X21666Y86934D01*
G01X21666Y86857D01*
G01X22163Y86857D01*
G01X22163Y86934D01*
G01X21970Y86964D01*
G01X21970Y87682D01*
G01X21969Y87718D01*
G01X21968Y87768D01*
G01X21966Y87832D01*
G01X21965Y87903D01*
G01X21961Y88057D01*
G01X21960Y88133D01*
G01X22478Y86857D01*
G01X22575Y86857D01*
G01X23078Y88138D01*
G01X23075Y87541D01*
G01X23075Y87248D01*
G01X23074Y87174D01*
G01X23073Y87102D01*
G01X23070Y86957D01*
G01X22877Y86934D01*
G01X22877Y86857D01*
G01X23484Y86857D01*
G01X23484Y86934D01*
G01X23279Y86957D01*
G01X23276Y87105D01*
G01X23274Y87179D01*
G01X23274Y87326D01*
G01X23273Y87399D01*
G01X23273Y87805D01*
G01X23274Y87880D01*
G01X23274Y88028D01*
G01X23276Y88101D01*
G01X23277Y88174D01*
G01X23279Y88247D01*
G01X23484Y88270D01*
G01X23484Y88346D01*
G01X23058Y88346D01*
G01X22575Y87111D01*
G01X22072Y88346D01*
G37*

%LPD*%
G36*
G01X20233Y88346D02*
G01X19583Y88346D01*
G01X19583Y88270D01*
G01X19791Y88247D01*
G01X19794Y88100D01*
G01X19796Y87952D01*
G01X19796Y87255D01*
G01X19795Y87179D01*
G01X19794Y87104D01*
G01X19791Y86957D01*
G01X19583Y86934D01*
G01X19583Y86857D01*
G01X20192Y86857D01*
G01X20258Y86860D01*
G01X20321Y86866D01*
G01X20382Y86875D01*
G01X20441Y86889D01*
G01X20498Y86907D01*
G01X20552Y86928D01*
G01X20603Y86953D01*
G01X20652Y86982D01*
G01X20697Y87014D01*
G01X20739Y87051D01*
G01X20778Y87090D01*
G01X20814Y87133D01*
G01X20845Y87180D01*
G01X20873Y87230D01*
G01X20898Y87284D01*
G01X20918Y87341D01*
G01X20934Y87401D01*
G01X20945Y87465D01*
G01X20952Y87532D01*
G01X20954Y87602D01*
G01X20952Y87672D01*
G01X20946Y87739D01*
G01X20936Y87803D01*
G01X20921Y87863D01*
G01X20903Y87921D01*
G01X20880Y87974D01*
G01X20854Y88024D01*
G01X20825Y88071D01*
G01X20792Y88114D01*
G01X20756Y88154D01*
G01X20716Y88190D01*
G01X20674Y88222D01*
G01X20628Y88251D01*
G01X20580Y88276D01*
G01X20528Y88297D01*
G01X20474Y88314D01*
G01X20417Y88328D01*
G01X20358Y88338D01*
G01X20297Y88344D01*
G01X20233Y88346D01*
G37*

%LPC*%
G36*
G01X20195Y88260D02*
G01X20002Y88260D01*
G01X20000Y88110D01*
G01X20000Y87959D01*
G01X19999Y87883D01*
G01X19999Y87330D01*
G01X20000Y87252D01*
G01X20000Y87098D01*
G01X20002Y86946D01*
G01X20177Y86946D01*
G01X20242Y86949D01*
G01X20303Y86958D01*
G01X20360Y86971D01*
G01X20412Y86991D01*
G01X20462Y87015D01*
G01X20506Y87044D01*
G01X20547Y87079D01*
G01X20584Y87119D01*
G01X20616Y87163D01*
G01X20644Y87213D01*
G01X20668Y87266D01*
G01X20688Y87325D01*
G01X20703Y87387D01*
G01X20715Y87455D01*
G01X20721Y87526D01*
G01X20723Y87602D01*
G01X20721Y87680D01*
G01X20715Y87753D01*
G01X20703Y87822D01*
G01X20688Y87886D01*
G01X20669Y87945D01*
G01X20645Y87998D01*
G01X20618Y88048D01*
G01X20586Y88091D01*
G01X20550Y88131D01*
G01X20510Y88165D01*
G01X20467Y88194D01*
G01X20420Y88217D01*
G01X20369Y88236D01*
G01X20315Y88249D01*
G01X20256Y88257D01*
G01X20195Y88260D01*
G37*

%LPD*%
G36*
G01X19385Y88346D02*
G01X18760Y88346D01*
G01X18760Y88270D01*
G01X18966Y88247D01*
G01X18967Y88174D01*
G01X18969Y88100D01*
G01X18970Y88026D01*
G01X18970Y87879D01*
G01X18971Y87805D01*
G01X18971Y87397D01*
G01X18970Y87324D01*
G01X18970Y87177D01*
G01X18969Y87103D01*
G01X18967Y87030D01*
G01X18966Y86957D01*
G01X18760Y86934D01*
G01X18760Y86857D01*
G01X19385Y86857D01*
G01X19385Y86934D01*
G01X19176Y86959D01*
G01X19175Y87032D01*
G01X19175Y87106D01*
G01X19174Y87179D01*
G01X19174Y88028D01*
G01X19175Y88174D01*
G01X19176Y88247D01*
G01X19385Y88270D01*
G01X19385Y88346D01*
G37*

%LPD*%
G36*
G01X18597Y88346D02*
G01X17490Y88346D01*
G01X17490Y88270D01*
G01X17698Y88247D01*
G01X17700Y88174D01*
G01X17702Y88026D01*
G01X17703Y87953D01*
G01X17703Y87250D01*
G01X17702Y87177D01*
G01X17701Y87103D01*
G01X17700Y87030D01*
G01X17698Y86957D01*
G01X17490Y86934D01*
G01X17490Y86857D01*
G01X18120Y86857D01*
G01X18120Y86934D01*
G01X17909Y86959D01*
G01X17908Y87033D01*
G01X17907Y87106D01*
G01X17907Y87257D01*
G01X17906Y87333D01*
G01X17906Y87571D01*
G01X18257Y87571D01*
G01X18285Y87340D01*
G01X18379Y87340D01*
G01X18379Y87879D01*
G01X18285Y87879D01*
G01X18257Y87660D01*
G01X17906Y87660D01*
G01X17906Y87884D01*
G01X17907Y87958D01*
G01X17907Y88104D01*
G01X17908Y88177D01*
G01X17909Y88249D01*
G01X18440Y88249D01*
G01X18498Y87955D01*
G01X18607Y87955D01*
G01X18597Y88346D01*
G37*

%LPD*%
G36*
G01X16664Y88346D02*
G01X16040Y88346D01*
G01X16040Y88270D01*
G01X16248Y88247D01*
G01X16249Y88174D01*
G01X16250Y88026D01*
G01X16250Y87177D01*
G01X16249Y87103D01*
G01X16249Y87030D01*
G01X16248Y86957D01*
G01X16040Y86934D01*
G01X16040Y86857D01*
G01X16667Y86857D01*
G01X16667Y86934D01*
G01X16459Y86959D01*
G01X16457Y87031D01*
G01X16456Y87103D01*
G01X16455Y87176D01*
G01X16454Y87250D01*
G01X16454Y87553D01*
G01X16573Y87553D01*
G01X16637Y87551D01*
G01X16692Y87544D01*
G01X16738Y87531D01*
G01X16777Y87510D01*
G01X16808Y87481D01*
G01X16835Y87442D01*
G01X16857Y87392D01*
G01X16875Y87330D01*
G01X16967Y86977D01*
G01X16993Y86911D01*
G01X17037Y86867D01*
G01X17102Y86842D01*
G01X17193Y86835D01*
G01X17242Y86836D01*
G01X17286Y86840D01*
G01X17326Y86847D01*
G01X17360Y86857D01*
G01X17360Y86934D01*
G01X17188Y86951D01*
G01X17083Y87299D01*
G01X17063Y87360D01*
G01X17040Y87412D01*
G01X17014Y87456D01*
G01X16985Y87494D01*
G01X16951Y87524D01*
G01X16912Y87549D01*
G01X16869Y87568D01*
G01X16819Y87581D01*
G01X16880Y87595D01*
G01X16936Y87612D01*
G01X16986Y87634D01*
G01X17031Y87659D01*
G01X17071Y87688D01*
G01X17105Y87720D01*
G01X17134Y87755D01*
G01X17158Y87792D01*
G01X17176Y87831D01*
G01X17190Y87871D01*
G01X17198Y87914D01*
G01X17200Y87957D01*
G01X17196Y88017D01*
G01X17184Y88072D01*
G01X17164Y88122D01*
G01X17136Y88168D01*
G01X17101Y88208D01*
G01X17059Y88244D01*
G01X17010Y88275D01*
G01X16953Y88300D01*
G01X16890Y88320D01*
G01X16821Y88334D01*
G01X16746Y88343D01*
G01X16664Y88346D01*
G37*

%LPC*%
G36*
G01X16652Y88260D02*
G01X16459Y88260D01*
G01X16456Y88111D01*
G01X16455Y88037D01*
G01X16454Y87961D01*
G01X16454Y87637D01*
G01X16636Y87637D01*
G01X16720Y87643D01*
G01X16792Y87662D01*
G01X16853Y87691D01*
G01X16903Y87729D01*
G01X16942Y87776D01*
G01X16970Y87831D01*
G01X16986Y87893D01*
G01X16992Y87960D01*
G01X16987Y88027D01*
G01X16972Y88087D01*
G01X16946Y88138D01*
G01X16910Y88181D01*
G01X16862Y88215D01*
G01X16804Y88240D01*
G01X16733Y88254D01*
G01X16652Y88260D01*
G37*

%LPD*%
G36*
G01X28651Y87939D02*
G01X28592Y87942D01*
G01X28541Y87940D01*
G01X28492Y87932D01*
G01X28443Y87919D01*
G01X28397Y87902D01*
G01X28352Y87881D01*
G01X28310Y87854D01*
G01X28271Y87824D01*
G01X28234Y87789D01*
G01X28201Y87750D01*
G01X28171Y87707D01*
G01X28145Y87661D01*
G01X28123Y87611D01*
G01X28105Y87558D01*
G01X28092Y87501D01*
G01X28084Y87441D01*
G01X28082Y87378D01*
G01X28084Y87315D01*
G01X28091Y87255D01*
G01X28103Y87198D01*
G01X28118Y87146D01*
G01X28138Y87097D01*
G01X28162Y87052D01*
G01X28189Y87010D01*
G01X28221Y86973D01*
G01X28255Y86940D01*
G01X28294Y86911D01*
G01X28335Y86887D01*
G01X28379Y86866D01*
G01X28427Y86850D01*
G01X28477Y86839D01*
G01X28530Y86832D01*
G01X28585Y86830D01*
G01X28655Y86834D01*
G01X28721Y86847D01*
G01X28782Y86868D01*
G01X28837Y86898D01*
G01X28887Y86934D01*
G01X28932Y86977D01*
G01X28970Y87028D01*
G01X29004Y87084D01*
G01X28961Y87114D01*
G01X28898Y87049D01*
G01X28828Y86998D01*
G01X28746Y86965D01*
G01X28646Y86954D01*
G01X28593Y86957D01*
G01X28543Y86966D01*
G01X28497Y86981D01*
G01X28455Y87003D01*
G01X28416Y87031D01*
G01X28381Y87064D01*
G01X28351Y87104D01*
G01X28326Y87151D01*
G01X28306Y87202D01*
G01X28290Y87261D01*
G01X28281Y87325D01*
G01X28277Y87396D01*
G01X28991Y87393D01*
G01X28998Y87419D01*
G01X29004Y87448D01*
G01X29007Y87481D01*
G01X29009Y87518D01*
G01X29005Y87581D01*
G01X28995Y87640D01*
G01X28977Y87695D01*
G01X28954Y87744D01*
G01X28924Y87789D01*
G01X28890Y87828D01*
G01X28850Y87862D01*
G01X28806Y87890D01*
G01X28758Y87913D01*
G01X28706Y87929D01*
G01X28651Y87939D01*
G37*

%LPC*%
G36*
G01X28634Y87853D02*
G01X28582Y87858D01*
G01X28531Y87853D01*
G01X28480Y87836D01*
G01X28432Y87808D01*
G01X28387Y87768D01*
G01X28348Y87716D01*
G01X28316Y87650D01*
G01X28293Y87572D01*
G01X28280Y87480D01*
G01X28707Y87475D01*
G01X28767Y87484D01*
G01X28805Y87509D01*
G01X28823Y87549D01*
G01X28828Y87599D01*
G01X28824Y87649D01*
G01X28810Y87698D01*
G01X28789Y87741D01*
G01X28759Y87780D01*
G01X28724Y87813D01*
G01X28682Y87837D01*
G01X28634Y87853D01*
G37*

%LPD*%
G36*
G01X26413Y87907D02*
G01X26390Y87929D01*
G01X26065Y87896D01*
G01X26065Y87830D01*
G01X26225Y87797D01*
G01X26217Y87231D01*
G01X26222Y87128D01*
G01X26238Y87043D01*
G01X26262Y86973D01*
G01X26296Y86919D01*
G01X26338Y86878D01*
G01X26388Y86850D01*
G01X26445Y86835D01*
G01X26509Y86830D01*
G01X26562Y86833D01*
G01X26614Y86843D01*
G01X26666Y86860D01*
G01X26717Y86882D01*
G01X26767Y86912D01*
G01X26815Y86948D01*
G01X26861Y86991D01*
G01X26906Y87040D01*
G01X26926Y86840D01*
G01X27233Y86857D01*
G01X27233Y86924D01*
G01X27081Y86949D01*
G01X27081Y87592D01*
G01X27089Y87907D01*
G01X27068Y87929D01*
G01X26746Y87894D01*
G01X26746Y87828D01*
G01X26906Y87797D01*
G01X26898Y87119D01*
G01X26824Y87056D01*
G01X26747Y87010D01*
G01X26668Y86983D01*
G01X26588Y86974D01*
G01X26545Y86978D01*
G01X26508Y86988D01*
G01X26476Y87006D01*
G01X26450Y87033D01*
G01X26429Y87069D01*
G01X26414Y87116D01*
G01X26406Y87172D01*
G01X26403Y87241D01*
G01X26403Y87592D01*
G01X26413Y87907D01*
G37*

%LPD*%
G36*
G01X25811Y88488D02*
G01X25783Y88503D01*
G01X25440Y88409D01*
G01X25440Y88343D01*
G01X25628Y88326D01*
G01X25628Y87797D01*
G01X25557Y87867D01*
G01X25485Y87912D01*
G01X25410Y87935D01*
G01X25333Y87942D01*
G01X25283Y87940D01*
G01X25234Y87932D01*
G01X25188Y87919D01*
G01X25143Y87902D01*
G01X25102Y87880D01*
G01X25063Y87854D01*
G01X25026Y87823D01*
G01X24993Y87788D01*
G01X24963Y87750D01*
G01X24936Y87707D01*
G01X24913Y87660D01*
G01X24894Y87610D01*
G01X24879Y87556D01*
G01X24868Y87499D01*
G01X24861Y87439D01*
G01X24858Y87376D01*
G01X24862Y87296D01*
G01X24874Y87222D01*
G01X24891Y87153D01*
G01X24916Y87090D01*
G01X24948Y87032D01*
G01X24985Y86980D01*
G01X25028Y86936D01*
G01X25076Y86899D01*
G01X25130Y86869D01*
G01X25188Y86847D01*
G01X25250Y86834D01*
G01X25316Y86830D01*
G01X25411Y86840D01*
G01X25494Y86871D01*
G01X25565Y86920D01*
G01X25628Y86987D01*
G01X25641Y86835D01*
G01X25986Y86857D01*
G01X25986Y86926D01*
G01X25806Y86946D01*
G01X25806Y88171D01*
G01X25811Y88488D01*
G37*

%LPC*%
G36*
G01X25428Y87825D02*
G01X25372Y87830D01*
G01X25329Y87828D01*
G01X25289Y87819D01*
G01X25250Y87805D01*
G01X25214Y87785D01*
G01X25179Y87759D01*
G01X25149Y87726D01*
G01X25122Y87686D01*
G01X25099Y87639D01*
G01X25080Y87586D01*
G01X25066Y87525D01*
G01X25057Y87457D01*
G01X25054Y87381D01*
G01X25057Y87308D01*
G01X25065Y87242D01*
G01X25078Y87183D01*
G01X25096Y87131D01*
G01X25118Y87086D01*
G01X25144Y87047D01*
G01X25174Y87015D01*
G01X25207Y86989D01*
G01X25243Y86969D01*
G01X25283Y86955D01*
G01X25325Y86946D01*
G01X25369Y86944D01*
G01X25437Y86950D01*
G01X25500Y86971D01*
G01X25560Y87009D01*
G01X25623Y87068D01*
G01X25623Y87713D01*
G01X25552Y87769D01*
G01X25488Y87805D01*
G01X25428Y87825D01*
G37*

%LPD*%
G36*
G01X24195Y87940D02*
G01X24147Y87942D01*
G01X24099Y87940D01*
G01X24051Y87933D01*
G01X24004Y87922D01*
G01X23958Y87906D01*
G01X23914Y87886D01*
G01X23872Y87862D01*
G01X23832Y87833D01*
G01X23795Y87799D01*
G01X23761Y87762D01*
G01X23730Y87720D01*
G01X23703Y87674D01*
G01X23680Y87624D01*
G01X23662Y87569D01*
G01X23648Y87511D01*
G01X23640Y87448D01*
G01X23637Y87381D01*
G01X23640Y87314D01*
G01X23648Y87252D01*
G01X23662Y87194D01*
G01X23680Y87140D01*
G01X23702Y87091D01*
G01X23729Y87045D01*
G01X23760Y87005D01*
G01X23794Y86968D01*
G01X23831Y86936D01*
G01X23871Y86907D01*
G01X23913Y86884D01*
G01X23957Y86864D01*
G01X24003Y86849D01*
G01X24050Y86838D01*
G01X24098Y86832D01*
G01X24147Y86830D01*
G01X24196Y86832D01*
G01X24244Y86838D01*
G01X24292Y86849D01*
G01X24338Y86864D01*
G01X24382Y86884D01*
G01X24425Y86907D01*
G01X24465Y86936D01*
G01X24502Y86968D01*
G01X24536Y87005D01*
G01X24567Y87045D01*
G01X24594Y87091D01*
G01X24617Y87140D01*
G01X24635Y87194D01*
G01X24649Y87252D01*
G01X24657Y87314D01*
G01X24660Y87381D01*
G01X24657Y87448D01*
G01X24649Y87511D01*
G01X24635Y87570D01*
G01X24617Y87625D01*
G01X24593Y87675D01*
G01X24566Y87721D01*
G01X24535Y87763D01*
G01X24501Y87800D01*
G01X24464Y87833D01*
G01X24424Y87862D01*
G01X24381Y87887D01*
G01X24337Y87907D01*
G01X24291Y87922D01*
G01X24244Y87933D01*
G01X24195Y87940D01*
G37*

%LPC*%
G36*
G01X24194Y87855D02*
G01X24147Y87858D01*
G01X24100Y87855D01*
G01X24057Y87845D01*
G01X24017Y87827D01*
G01X23981Y87803D01*
G01X23949Y87773D01*
G01X23920Y87736D01*
G01X23896Y87692D01*
G01X23876Y87642D01*
G01X23860Y87586D01*
G01X23849Y87523D01*
G01X23842Y87455D01*
G01X23840Y87381D01*
G01X23842Y87308D01*
G01X23849Y87241D01*
G01X23860Y87179D01*
G01X23876Y87124D01*
G01X23896Y87075D01*
G01X23920Y87033D01*
G01X23949Y86997D01*
G01X23981Y86967D01*
G01X24017Y86943D01*
G01X24057Y86927D01*
G01X24100Y86917D01*
G01X24147Y86913D01*
G01X24194Y86917D01*
G01X24237Y86927D01*
G01X24277Y86943D01*
G01X24313Y86967D01*
G01X24345Y86997D01*
G01X24373Y87033D01*
G01X24398Y87075D01*
G01X24418Y87124D01*
G01X24434Y87179D01*
G01X24445Y87241D01*
G01X24452Y87308D01*
G01X24455Y87381D01*
G01X24452Y87455D01*
G01X24445Y87523D01*
G01X24434Y87586D01*
G01X24418Y87642D01*
G01X24398Y87692D01*
G01X24373Y87736D01*
G01X24345Y87773D01*
G01X24313Y87803D01*
G01X24277Y87827D01*
G01X24237Y87845D01*
G01X24194Y87855D01*
G37*

%LPD*%
G54D25*
G75*
G01X138700Y86737D02*
G02X139198Y86240I0J-497D01*
G01*
G75*
G01X139201Y72239D02*
G02X138700Y71739I-501J0D01*
G01*
G75*
G01X75200Y71739D02*
G02X74700Y72239I0J500D01*
G01*
G75*
G01X74700Y86240D02*
G02X75200Y86740I500J0D01*
G01*
G75*
G01X146998Y94738D02*
G03X146998Y94725I-2499J-1D01*
G01*
G75*
G01X146998Y63738D02*
G03X146998Y63725I-2499J-2D01*
G01*
G75*
G01X72003Y63738D02*
G03X72003Y63725I-2502J-2D01*
G01*
G75*
G01X72000Y94738D02*
G03X72000Y94725I-2499J-1D01*
G01*
G54D10*
G75*
G01X87061Y29327D02*
G03X87061Y29327I-9525J0D01*
G01*
M00*
M02*
